<?xml version="1.0" encoding="utf-8"?>
<svg xmlns="http://www.w3.org/2000/svg" viewBox="0 0 26 26" width="208" height="208">
  <g transform="scale(-1, 1) translate(-26, 0)">
    <path d="M16.101563 4.5C16.199219 3.898438 16.699219 3.5 17.101563 3.5C17.5 3.601563 17.800781 4.101563 17.601563 4.699219C17.5 5.300781 17 5.699219 16.601563 5.699219C16.199219 5.601563 16 5.101563 16.101563 4.5 Z M 18.101563 6.898438C18.398438 6.898438 18.699219 6.5 18.699219 6C18.699219 5.5 18.398438 5.101563 18.101563 5.101563C17.800781 5.101563 17.5 5.5 17.5 6C17.5 6.5 17.800781 6.898438 18.101563 6.898438 Z M 15 4.898438C15.5 4.898438 15.898438 4.300781 15.898438 3.5C15.898438 2.699219 15.5 2.101563 15 2.101563C14.5 2.101563 14.101563 2.699219 14.101563 3.5C14.101563 4.300781 14.5 4.898438 15 4.898438 Z M 11.199219 6.101563C10.101563 6.101563 8.101563 6.398438 8.101563 8.699219C8.101563 12.101563 12.199219 12 12.199219 15.800781C12.199219 18.800781 9 19.199219 9.101563 22.5C9.199219 24.300781 9.898438 25.898438 12.800781 25.898438C14.800781 25.898438 16 24 16 22.300781C16 17.601563 19.101563 16.199219 19 11.601563C18.800781 6.898438 13.199219 6.101563 11.199219 6.101563 Z M 9.101563 4.898438C10 4.800781 10.5 3.601563 10.300781 2.199219C10.101563 0.898438 9.199219 -0.101563 8.300781 0.101563C7.398438 0.300781 6.898438 1.398438 7.101563 2.699219C7.300781 4.101563 8.199219 5 9.101563 4.898438 Z M 12.5 4.5C13.101563 4.398438 13.601563 3.601563 13.5 2.699219C13.398438 1.800781 12.800781 1.101563 12.199219 1.101563C11.5 1.199219 11 2 11.101563 3C11.199219 3.898438 11.800781 4.601563 12.5 4.5Z"
          fill="#E46B6B"/>
  </g>
</svg>
